<?xml version="1.0" standalone="no"?>
<!DOCTYPE svg PUBLIC "-//W3C//DTD SVG 20010904//EN"
 "http://www.w3.org/TR/2001/REC-SVG-20010904/DTD/svg10.dtd">
<svg version="1.0" xmlns="http://www.w3.org/2000/svg"
 width="2553.000000pt" height="644.000000pt" viewBox="0 0 2553.000000 644.000000"
 preserveAspectRatio="xMidYMid meet">

<g transform="translate(0.000000,644.000000) scale(0.100000,-0.100000)"
fill="#000000" stroke="none">
<path d="M3890 6370 c0 -5 28 -66 62 -136 55 -111 63 -134 63 -184 0 -136
-129 -240 -261 -211 -87 20 -123 55 -215 214 -106 184 -113 194 -159 217 -85
43 -202 15 -264 -63 -25 -31 -31 -49 -34 -100 -3 -61 -2 -64 63 -172 79 -131
92 -174 75 -244 -32 -135 -190 -214 -306 -152 -63 33 -78 50 -157 171 -103
159 -129 180 -221 181 -42 1 -67 -6 -108 -27 -67 -37 -98 -87 -98 -162 0 -58
10 -81 99 -232 49 -85 56 -102 59 -161 3 -51 0 -75 -16 -108 -19 -38 -19 -42
-4 -36 9 4 55 20 102 36 47 16 100 36 119 45 18 9 90 30 160 46 69 16 135 33
146 38 59 24 321 56 585 71 221 12 447 7 710 -17 158 -14 436 -50 450 -59 4
-2 96 -16 206 -30 218 -27 254 -34 549 -94 110 -23 204 -46 209 -51 15 -15 36
-12 30 5 -4 8 -12 15 -20 15 -8 0 -14 3 -14 8 0 11 -93 72 -117 76 -12 3 -43
17 -70 32 -26 15 -73 34 -103 44 -51 15 -57 21 -87 73 -18 32 -32 59 -32 60 1
22 -108 209 -161 277 -55 71 -117 139 -155 171 -23 19 -61 53 -85 77 -24 23
-47 42 -51 42 -4 0 -14 6 -21 13 -44 41 -129 90 -309 178 -60 29 -144 60 -176
65 -21 3 -42 9 -48 12 -5 4 -14 7 -20 9 -24 5 -54 13 -116 31 -96 29 -259 49
-259 32z m878 -648 c68 -31 109 -136 83 -215 -15 -45 -78 -102 -130 -118 -52
-16 -107 -1 -157 43 -47 41 -64 77 -64 133 0 87 46 149 127 170 53 14 90 11
141 -13z"/>
<path d="M4629 5655 c-54 -30 -62 -114 -17 -162 32 -34 100 -32 136 4 l27 27
-30 8 c-55 14 -71 62 -34 99 11 11 19 23 16 25 -13 13 -75 13 -98 -1z"/>
<path d="M1665 5671 c-56 -15 -80 -29 -112 -63 -39 -41 -53 -76 -53 -134 0
-38 17 -77 117 -262 106 -197 117 -223 121 -279 5 -78 -9 -122 -58 -172 -81
-83 -217 -90 -300 -15 -21 19 -66 84 -100 147 -133 239 -153 269 -193 298 -48
34 -63 36 -72 8 -4 -12 -17 -32 -29 -46 -27 -30 -88 -131 -123 -203 -14 -30
-29 -57 -32 -60 -3 -3 -12 -15 -18 -27 -11 -20 -6 -35 43 -131 49 -94 57 -115
56 -163 0 -30 -8 -71 -16 -91 -20 -48 -79 -104 -123 -119 -34 -11 -105 -8
-166 7 -15 3 -27 3 -26 -2 1 -5 0 -11 -1 -14 -1 -3 -3 -13 -5 -23 -2 -10 -12
-37 -23 -60 -23 -50 -53 -147 -45 -147 3 0 0 -6 -6 -13 -6 -8 -8 -17 -5 -20 3
-3 2 -12 -2 -19 -4 -7 -9 -19 -10 -28 -1 -8 -13 -51 -27 -95 -22 -73 -30 -107
-42 -200 -2 -16 -7 -46 -10 -65 -4 -19 -7 -42 -7 -50 0 -8 -4 -31 -8 -50 -16
-62 -40 -364 -40 -486 0 -111 23 -368 45 -494 2 -14 6 -38 9 -55 2 -16 7 -41
10 -55 3 -14 8 -46 11 -71 3 -25 17 -84 31 -130 14 -46 27 -91 29 -99 2 -8 4
-17 6 -20 1 -3 3 -9 4 -15 2 -5 4 -12 5 -15 1 -3 3 -16 6 -29 2 -13 16 -50 30
-82 l26 -58 -26 -34 c-14 -19 -26 -39 -26 -45 0 -6 -6 -17 -13 -24 -20 -20
-87 -132 -87 -145 0 -6 -3 -13 -7 -15 -10 -4 -81 -120 -85 -138 -2 -8 -6 -18
-10 -21 -8 -5 -167 -314 -168 -324 0 -3 -12 -31 -26 -62 -35 -77 -54 -133 -47
-133 3 0 1 -6 -5 -12 -6 -7 -11 -16 -11 -20 -3 -27 -6 -41 -18 -83 -27 -93
-28 -205 -2 -205 6 0 8 4 5 9 -4 5 -3 11 1 13 5 1 27 32 50 68 46 72 131 158
208 212 56 40 250 148 265 148 5 0 43 20 84 45 87 53 217 178 235 226 7 19 16
41 20 49 12 22 7 36 -37 130 -22 47 -45 103 -52 125 -7 22 -23 63 -35 90 -19
42 -47 140 -96 335 -50 198 -50 686 0 880 44 168 84 307 95 329 8 14 29 64 46
111 18 47 36 87 39 90 4 3 26 43 49 90 181 366 514 761 922 1091 58 47 125
100 150 117 77 55 239 161 273 179 l32 16 -48 13 c-64 16 -121 55 -150 102
-13 20 -69 121 -124 223 -56 102 -107 196 -114 208 -31 50 -119 79 -184 62z"/>
<path d="M1440 2798 c0 -398 -2 -799 -3 -891 l-2 -168 115 3 115 3 3 403 2
402 415 0 415 0 0 105 0 105 -415 0 -415 0 0 275 0 275 478 2 477 3 3 103 3
102 -596 0 -595 0 0 -722z"/>
<path d="M4288 3395 l-3 -125 108 0 107 0 0 125 0 125 -104 0 -105 0 -3 -125z"/>
<path d="M6210 3395 l0 -125 105 0 105 0 0 125 0 125 -105 0 -105 0 0 -125z"/>
<path d="M8960 2630 l0 -890 104 0 104 0 4 423 c4 407 5 424 27 491 17 53 34
80 72 118 66 66 124 90 227 96 137 7 221 -39 264 -146 22 -56 23 -64 26 -519
l3 -463 105 0 104 0 0 468 c0 492 -4 546 -48 645 -81 182 -390 261 -611 157
-33 -16 -83 -50 -109 -75 -27 -25 -52 -45 -56 -45 -3 0 -6 142 -6 315 l0 315
-105 0 -105 0 0 -890z"/>
<path d="M11050 2630 l0 -890 110 0 110 0 0 757 c0 416 3 754 6 751 3 -4 119
-343 259 -755 l253 -748 105 -3 105 -3 49 143 c28 79 144 415 259 747 l209
605 3 -747 2 -747 110 0 110 0 0 890 0 891 -156 -3 -156 -3 -194 -565 c-107
-311 -221 -648 -255 -750 -34 -102 -64 -188 -68 -192 -3 -4 -120 335 -259 752
l-254 760 -174 0 -174 0 0 -890z"/>
<path d="M15290 3395 l0 -126 108 3 107 3 3 30 c2 17 1 72 -3 123 l-7 92 -104
0 -104 0 0 -125z"/>
<path d="M19154 3503 c25 -81 362 -1370 378 -1443 28 -138 84 -306 120 -359
17 -25 57 -74 89 -108 52 -56 124 -182 117 -204 -2 -5 -25 19 -53 52 -52 64
-137 129 -167 129 -36 0 -13 -81 41 -142 31 -36 39 -58 21 -58 -14 0 -12 -30
4 -62 17 -32 12 -38 -30 -38 -21 0 -37 6 -43 17 -8 15 -22 18 -85 16 -81 -3
-96 6 -96 56 0 12 -4 21 -9 21 -15 0 -18 -23 -7 -52 16 -44 -2 -79 -57 -107
-26 -13 -46 -26 -44 -27 5 -5 109 40 147 64 49 30 90 29 122 -6 37 -40 48 -65
48 -116 0 -61 -34 -100 -106 -123 -30 -9 -54 -22 -54 -29 0 -6 19 -29 43 -51
l43 -40 109 -7 110 -8 36 -39 c22 -23 45 -39 59 -39 28 0 111 40 117 57 7 19
107 17 123 -2 18 -21 77 -36 105 -25 14 5 33 18 45 30 20 20 20 20 52 0 42
-26 92 -25 148 2 41 19 64 22 272 24 242 3 272 9 315 56 24 26 23 108 0 203
-27 104 -55 154 -114 200 -58 45 -61 51 -34 60 24 7 35 35 21 49 -7 7 -19 7
-40 -1 -41 -15 -38 -5 13 38 32 28 39 40 31 49 -9 9 -17 9 -33 1 -34 -18 -24
4 14 33 35 27 44 49 25 61 -5 3 -19 1 -30 -5 -31 -16 -24 2 12 31 21 18 29 31
25 43 -5 14 -11 15 -27 6 -25 -13 -26 -3 -1 24 12 14 95 302 245 856 125 459
233 856 241 883 l13 47 -119 0 c-106 0 -119 -2 -119 -17 0 -9 -72 -312 -159
-673 -88 -360 -168 -694 -178 -742 -9 -49 -20 -88 -24 -88 -3 0 -12 35 -18 78
-22 140 -80 383 -149 632 -38 135 -104 372 -148 527 l-79 283 -140 0 -140 0
-119 -425 c-90 -321 -123 -426 -136 -430 -27 -8 -40 -50 -40 -124 0 -37 -9
-101 -20 -142 -11 -41 -32 -122 -46 -181 -14 -60 -28 -108 -30 -108 -13 0 -26
67 -34 181 -11 139 -25 196 -53 213 -14 9 -21 7 -32 -8 -11 -15 -16 -16 -19
-5 -7 19 -236 1012 -236 1022 0 4 -54 7 -121 7 -110 0 -120 -1 -115 -17z
m1146 -227 c0 -7 56 -217 125 -467 69 -250 127 -470 129 -490 2 -20 7 -47 10
-60 7 -23 6 -23 -14 4 -24 30 -42 34 -59 14 -8 -10 -1 -22 29 -51 27 -25 40
-46 40 -64 l0 -26 -28 27 c-36 35 -62 35 -62 2 0 -18 10 -31 33 -45 41 -24 57
-38 57 -51 0 -5 -13 0 -29 12 -16 12 -37 19 -45 16 -32 -12 -16 -37 43 -69 25
-12 46 -28 48 -35 3 -7 -11 -4 -32 7 -38 19 -65 17 -65 -5 0 -18 18 -30 65
-45 22 -7 45 -17 51 -21 8 -6 17 0 29 17 21 32 30 26 12 -8 -11 -23 -18 -25
-60 -21 -38 3 -47 0 -47 -12 0 -8 12 -20 28 -26 66 -27 94 -40 90 -44 -2 -3
-18 1 -35 7 -36 13 -65 5 -57 -16 4 -10 25 -18 55 -22 27 -4 54 -13 61 -22 11
-13 10 -14 -9 -4 -30 16 -70 15 -76 -2 -8 -19 12 -34 54 -42 38 -7 79 -30 79
-44 0 -5 -16 0 -35 11 -37 22 -65 20 -65 -5 0 -15 10 -19 68 -31 18 -4 37 -15
42 -26 14 -25 6 -24 -30 2 -29 22 -65 20 -58 -4 4 -10 20 -20 79 -49 4 -2 10
-13 13 -26 l7 -22 -35 21 c-33 19 -36 20 -43 4 -4 -13 4 -26 28 -46 39 -32 37
-33 -65 -18 l-75 11 20 40 c19 37 18 58 -1 58 -5 0 -18 -17 -29 -37 -14 -27
-20 -32 -20 -18 0 11 6 29 14 39 8 11 15 26 15 33 0 21 -28 15 -40 -8 -7 -11
-14 -18 -17 -15 -3 3 2 17 11 30 28 44 11 77 -22 44 -17 -17 -14 3 3 26 15 20
20 56 8 56 -3 0 -15 -8 -25 -17 -19 -17 -19 -16 -16 22 3 34 0 40 -17 40 -17
0 -20 -6 -19 -37 1 -34 0 -36 -18 -27 -24 13 -41 0 -32 -24 3 -9 21 -26 40
-38 40 -24 44 -32 11 -20 -27 11 -53 -1 -42 -19 4 -6 27 -20 51 -30 47 -20 59
-36 21 -27 -12 4 -29 2 -37 -4 -13 -8 -12 -11 4 -24 11 -8 28 -15 38 -15 16 0
16 -2 -4 -22 -27 -27 -128 -90 -128 -79 0 3 7 17 16 29 27 39 34 78 17 102
-17 24 -41 21 -86 -12 -16 -11 -31 -17 -34 -14 -11 10 74 367 112 477 24 67
17 149 -13 149 -45 0 -71 -64 -96 -235 -8 -55 -19 -111 -24 -125 -16 -43 -25
144 -17 364 6 173 5 207 -9 240 -21 51 -53 47 -81 -9 -21 -43 -21 -38 -14
-427 3 -122 0 -191 -6 -197 -8 -8 -22 31 -48 127 -32 117 -37 153 -37 242 0
104 1 111 129 570 71 256 134 491 141 522 7 32 17 55 22 52 4 -3 8 -11 8 -18z
m298 -1098 c-2 -6 -10 -14 -16 -16 -7 -2 -10 2 -6 12 7 18 28 22 22 4z m22
-64 c0 -3 -9 -17 -20 -31 -21 -27 -27 -15 -10 18 10 18 30 27 30 13z m3 -94
c-9 -16 -21 -30 -26 -30 -9 0 -1 17 21 43 23 26 25 21 5 -13z m-688 -159 c9
-35 14 -66 11 -68 -3 -3 -15 15 -27 40 -15 31 -20 53 -15 72 9 35 11 32 31
-44z m726 2 c-10 -17 -10 -16 -11 3 0 23 13 41 18 25 2 -6 -1 -18 -7 -28z m30
-66 c-8 -8 -11 -7 -11 4 0 20 13 34 18 19 3 -7 -1 -17 -7 -23z m-811 -118 c80
-97 116 -180 101 -234 l-8 -30 -17 35 c-10 19 -45 68 -77 107 -33 40 -75 98
-94 128 l-36 55 40 0 c37 0 44 -5 91 -61z m854 46 c-4 -8 -8 -15 -10 -15 -2 0
-4 7 -4 15 0 8 4 15 10 15 5 0 7 -7 4 -15z m140 -1 c10 -25 6 -41 -5 -21 -12
20 -49 23 -49 4 0 -7 14 -26 30 -42 34 -33 39 -51 10 -35 -30 16 -37 -13 -11
-49 12 -16 21 -35 21 -42 0 -8 -5 -5 -13 6 -14 18 -37 14 -37 -8 0 -7 9 -23
20 -37 22 -28 26 -45 8 -34 -7 5 -30 9 -51 10 -21 1 -41 5 -45 8 -3 4 11 23
31 44 55 56 45 102 -10 50 -37 -35 -26 -2 12 36 36 36 47 76 21 76 -8 0 -24
-12 -35 -26 -27 -34 -27 -25 2 31 20 40 25 44 58 45 25 0 39 -5 43 -16z m-884
-394 c0 -5 -4 -10 -10 -10 -5 0 -10 5 -10 10 0 6 5 10 10 10 6 0 10 -4 10 -10z
m-61 -24 c9 -10 8 -16 -4 -26 -13 -11 -19 -11 -32 2 -16 17 -10 38 11 38 8 0
19 -6 25 -14z m346 -16 c14 -28 14 -31 0 -36 -24 -10 -65 13 -65 35 0 19 12
29 37 30 7 1 20 -13 28 -29z m-221 -59 c10 -15 -20 -45 -39 -37 -17 6 -17 7 0
26 20 22 31 25 39 11z m-189 -51 c33 -31 24 -38 -13 -10 -18 14 -40 20 -58 18
-25 -3 -29 -7 -29 -33 -1 -34 -28 -45 -64 -25 -27 14 -26 26 5 57 23 22 32 25
80 21 39 -3 61 -11 79 -28z m436 -40 c2 -14 2 -37 0 -52 -2 -19 -31 22 -31 44
0 18 29 26 31 8z m-110 -51 c43 -34 51 -68 23 -107 -21 -30 -46 -42 -114 -53
-47 -7 -67 -6 -95 5 -31 13 -35 19 -35 53 0 22 -5 44 -11 50 -34 34 43 80 140
82 45 1 59 -4 92 -30z m318 0 c17 -50 15 -58 -16 -50 -19 5 -29 15 -31 30 -8
55 29 71 47 20z m-758 -68 c-28 -21 -25 -52 7 -66 35 -15 28 -36 -10 -28 -43
8 -58 20 -58 47 0 37 26 60 75 65 6 0 -1 -8 -14 -18z m739 -88 c0 -10 -69 -43
-91 -43 -41 0 -42 11 -3 51 l37 38 28 -22 c16 -11 29 -22 29 -24z"/>
<path d="M20005 1030 c-10 -16 -2 -21 51 -31 57 -11 86 -4 82 19 -3 13 -17 18
-65 20 -37 2 -64 -1 -68 -8z"/>
<path d="M23810 2630 l0 -890 105 0 105 0 0 890 0 890 -105 0 -105 0 0 -890z"/>
<path d="M25190 3198 l0 -321 -60 57 c-109 104 -252 144 -406 112 -109 -22
-178 -58 -249 -131 -133 -137 -194 -333 -182 -584 9 -193 62 -332 168 -445 98
-105 179 -148 315 -167 146 -20 283 27 374 128 l50 57 0 -82 0 -82 100 0 100
0 0 890 0 890 -105 0 -105 0 0 -322z m-205 -350 c59 -31 137 -110 160 -164 38
-90 47 -133 52 -274 8 -226 -21 -330 -121 -426 -135 -130 -319 -124 -449 15
-83 89 -117 201 -117 391 0 202 40 321 136 409 68 63 123 82 219 77 50 -2 84
-10 120 -28z"/>
<path d="M5245 3049 c-119 -17 -220 -52 -286 -102 -57 -41 -133 -171 -145
-245 l-6 -39 95 -13 c95 -12 117 -10 117 14 0 7 14 40 30 74 54 107 155 150
328 139 195 -12 282 -93 282 -263 l0 -52 -47 -16 c-51 -17 -208 -45 -392 -71
-209 -30 -314 -79 -382 -178 -55 -80 -71 -131 -72 -222 0 -198 132 -330 356
-355 80 -9 209 1 277 21 52 17 179 86 227 125 23 19 43 34 46 34 2 0 7 -19 10
-43 3 -23 13 -59 22 -80 l15 -37 109 0 109 0 -24 69 c-32 92 -34 120 -43 581
-9 456 -10 461 -95 545 -66 66 -149 100 -279 114 -109 12 -165 12 -252 0z
m415 -736 c0 -96 -22 -200 -52 -254 -28 -50 -119 -120 -196 -150 -85 -34 -237
-34 -305 0 -126 61 -154 220 -56 313 47 45 89 58 299 94 85 14 187 36 225 49
39 13 73 23 78 24 4 1 7 -34 7 -76z"/>
<path d="M7154 3046 c-67 -21 -95 -48 -178 -171 l-26 -38 0 97 0 96 -95 0 -95
0 -2 -645 -3 -645 108 0 107 0 0 378 c0 487 12 565 99 652 37 37 59 50 97 58
55 12 125 2 175 -23 17 -9 32 -15 34 -13 2 2 19 47 39 101 l35 99 -53 24 c-52
24 -139 45 -180 43 -11 0 -40 -6 -62 -13z"/>
<path d="M7975 3046 c-216 -36 -331 -121 -394 -292 -34 -91 -35 -90 75 -104
53 -6 100 -8 103 -3 4 4 16 31 26 58 23 63 96 138 150 155 70 21 213 24 285 6
134 -34 183 -96 184 -230 l1 -79 -30 -9 c-68 -19 -180 -40 -340 -64 -93 -13
-195 -31 -225 -40 -201 -58 -314 -225 -288 -427 15 -113 104 -225 213 -266 82
-31 199 -42 302 -30 133 17 223 55 343 146 l45 34 7 -38 c5 -21 15 -57 24 -80
l16 -43 110 0 c101 0 110 1 103 18 -49 111 -48 105 -56 552 -4 263 -11 444
-18 475 -31 131 -139 226 -290 255 -92 17 -261 20 -346 6z m435 -734 c0 -206
-58 -311 -215 -390 -96 -48 -250 -53 -340 -11 -122 57 -150 214 -55 309 47 47
86 60 300 96 85 14 187 36 225 49 39 13 73 23 78 24 4 1 7 -34 7 -77z"/>
<path d="M13475 3045 c-217 -35 -325 -115 -390 -290 -14 -36 -25 -71 -25 -79
0 -9 31 -17 100 -26 56 -7 102 -11 104 -9 1 2 10 24 19 49 39 103 87 150 182
175 122 31 281 13 359 -42 64 -45 81 -83 81 -182 l0 -85 -70 -18 c-38 -11
-160 -32 -270 -48 -305 -45 -384 -77 -468 -190 -54 -72 -77 -139 -77 -226 0
-113 50 -215 138 -279 118 -87 337 -105 521 -44 36 12 106 50 158 85 54 36 93
57 93 50 0 -8 9 -44 20 -80 l21 -66 110 0 c102 0 111 1 104 18 -47 113 -48
117 -55 572 -7 469 -7 467 -64 565 -49 83 -160 137 -319 154 -119 13 -170 13
-272 -4z m432 -790 c-6 -126 -26 -182 -86 -244 -89 -93 -207 -137 -342 -128
-83 5 -137 27 -181 74 -57 60 -67 155 -23 229 41 70 90 88 370 138 77 14 167
34 200 44 72 22 69 27 62 -113z"/>
<path d="M14861 3049 c-51 -12 -116 -73 -171 -158 l-35 -54 -3 97 -3 96 -94 0
-95 0 0 -645 0 -645 104 0 104 0 5 408 c5 452 10 500 70 590 59 87 168 118
277 78 25 -9 49 -18 53 -19 5 -1 24 41 43 93 l35 94 -23 18 c-54 40 -192 64
-267 47z"/>
<path d="M16340 3049 c-91 -15 -191 -70 -254 -142 l-56 -62 0 93 0 92 -95 0
-95 0 0 -645 0 -646 108 3 107 3 5 435 c5 429 5 436 29 495 48 122 165 196
310 195 143 -1 237 -74 257 -198 4 -27 12 -42 24 -45 17 -4 17 -2 4 29 -17 41
-17 39 2 58 9 9 21 13 27 9 7 -5 21 -8 32 -8 17 0 20 -8 23 -60 2 -46 9 -67
30 -95 l27 -35 5 48 c6 53 19 62 37 26 12 -22 13 -19 13 31 0 50 -6 64 -59
150 -50 82 -71 128 -87 188 -6 23 -131 72 -207 82 -84 11 -113 11 -187 -1z"/>
<path d="M17645 3054 c-58 -9 -140 -36 -198 -65 -96 -49 -212 -179 -201 -225
4 -17 -5 -39 -35 -81 -38 -54 -46 -80 -65 -193 l-6 -35 36 50 c20 28 45 69 55
92 27 57 47 77 65 62 28 -23 13 -58 -90 -212 -54 -80 -66 -106 -66 -139 0 -21
3 -37 8 -34 9 6 57 99 77 150 13 34 18 38 42 33 39 -7 107 64 117 122 9 59 48
139 90 188 86 98 262 141 388 93 70 -26 151 -97 183 -160 13 -25 29 -74 36
-107 20 -96 14 -104 -150 -218 l-65 -45 100 0 101 0 17 98 c10 59 31 129 52
177 48 108 76 194 69 216 -11 33 -121 134 -181 166 -33 17 -82 38 -111 46 -55
16 -216 29 -268 21z"/>
<path d="M22045 3054 c-190 -27 -344 -131 -427 -289 -120 -229 -108 -606 26
-808 64 -97 174 -180 280 -212 344 -104 690 64 777 377 18 66 23 116 26 243 4
145 2 169 -19 251 -71 266 -265 424 -538 437 -52 3 -108 3 -125 1z m237 -206
c31 -15 77 -47 102 -71 90 -90 126 -202 126 -393 0 -213 -47 -335 -163 -420
-141 -104 -321 -98 -448 15 -102 91 -141 203 -142 406 -1 192 41 314 139 404
72 66 148 92 254 88 55 -3 91 -11 132 -29z"/>
<path d="M23380 3041 c-57 -20 -80 -42 -153 -146 l-42 -60 -3 98 -3 97 -94 0
-95 0 0 -645 0 -646 108 3 107 3 6 420 c6 447 9 475 59 562 59 103 195 137
311 78 17 -9 32 -15 33 -13 2 2 18 47 37 101 38 110 41 103 -46 136 -80 30
-161 34 -225 12z"/>
<path d="M2900 2583 c0 -247 5 -482 10 -523 25 -191 150 -312 352 -339 170
-23 303 21 419 139 l69 70 0 -95 0 -95 95 0 95 0 0 645 0 645 -105 0 -105 0 0
-367 c-1 -370 -7 -480 -35 -563 -19 -58 -91 -132 -163 -167 -50 -24 -69 -28
-147 -28 -99 0 -144 15 -194 66 -70 70 -80 155 -81 712 l0 347 -105 0 -105 0
0 -447z"/>
<path d="M4287 2278 c-2 -536 -7 -763 -15 -788 -7 -21 -26 -45 -47 -59 -31
-21 -43 -23 -105 -19 -65 5 -71 4 -75 -16 -40 -175 -44 -161 44 -172 86 -11
195 1 247 28 91 45 135 121 154 268 5 42 10 388 10 793 l0 717 -104 0 -105 0
-4 -752z"/>
<path d="M6210 2385 l0 -645 105 0 105 0 0 645 0 645 -105 0 -105 0 0 -645z"/>
<path d="M15290 2385 l0 -646 108 3 107 3 3 540 c2 297 0 586 -3 643 l-7 102
-104 0 -104 0 0 -645z"/>
<path d="M18282 2481 c-14 -104 -8 -151 19 -151 16 0 19 8 19 59 0 78 -11 181
-20 181 -3 0 -12 -40 -18 -89z"/>
<path d="M16670 2471 c0 -91 19 -146 55 -163 14 -6 27 -9 29 -7 3 2 -1 23 -7
46 -23 87 22 67 74 -32 48 -94 59 -94 59 -3 l0 74 -52 51 c-55 52 -135 113
-150 113 -4 0 -8 -35 -8 -79z"/>
<path d="M17428 2500 c36 -15 26 -39 -25 -62 -43 -18 -153 -112 -153 -129 0
-4 16 -3 36 2 25 8 39 7 49 -1 24 -20 0 -47 -57 -64 -106 -31 -145 -75 -97
-108 13 -8 24 -30 28 -53 l7 -40 22 35 c18 29 20 43 15 92 -6 57 -5 58 20 58
20 0 27 -6 32 -30 4 -16 4 -39 0 -50 -10 -32 2 -23 36 26 29 42 31 51 25 100
l-6 54 115 0 c63 0 115 2 115 5 0 3 -18 29 -41 57 -33 42 -40 58 -37 85 l4 33
-56 -1 c-43 0 -50 -2 -32 -9z"/>
<path d="M17540 2499 c0 -5 5 -7 10 -4 6 3 10 8 10 11 0 2 -4 4 -10 4 -5 0
-10 -5 -10 -11z"/>
<path d="M17602 2480 c0 -19 4 -48 8 -65 7 -29 8 -28 8 10 0 22 -4 51 -8 65
-7 23 -8 22 -8 -10z"/>
<path d="M17750 2491 c0 -11 -5 -23 -11 -27 -13 -8 -49 -83 -49 -104 0 -8 13
8 29 36 16 28 46 65 66 82 l36 32 -36 0 c-28 0 -35 -4 -35 -19z"/>
<path d="M17860 2495 c10 -12 8 -22 -9 -55 -26 -49 -26 -58 -3 -38 9 9 38 26
63 37 26 12 57 33 69 47 l23 24 -77 0 c-68 0 -77 -2 -66 -15z"/>
<path d="M16670 2220 c0 -18 5 -30 13 -30 9 0 12 10 9 30 -2 17 -8 30 -13 30
-5 0 -9 -13 -9 -30z"/>
<path d="M16757 2204 c12 -19 24 -24 54 -24 22 0 39 2 39 5 0 8 -43 28 -77 35
-32 8 -32 8 -16 -16z"/>
<path d="M16670 1988 c0 -135 2 -152 20 -175 23 -30 24 -23 9 48 -10 44 -9 53
6 68 15 15 17 15 31 -3 14 -20 14 -20 14 0 0 10 -9 34 -21 53 -11 18 -18 40
-15 47 8 20 40 17 61 -6 17 -19 18 -19 41 23 16 29 29 42 43 41 16 0 21 5 21
26 l0 27 -61 -10 c-40 -7 -75 -7 -105 0 l-44 10 0 -149z"/>
<path d="M17887 2124 c-16 -5 -15 -7 5 -23 26 -22 19 -51 -13 -51 -12 0 -39 5
-59 11 -89 27 -159 -16 -190 -118 -11 -36 -18 -68 -15 -71 5 -5 17 23 46 103
11 28 21 40 34 40 16 0 20 -7 20 -35 -1 -19 -4 -45 -8 -57 -7 -19 -5 -21 18
-14 19 5 36 24 58 66 33 62 52 73 71 43 8 -13 7 -26 -1 -47 -10 -29 -10 -29
13 -21 34 13 51 4 58 -32 9 -43 0 -50 -58 -48 -81 4 -84 1 -28 -26 39 -18 52
-29 50 -42 -3 -12 -13 -17 -41 -17 -21 0 -41 -6 -46 -14 -12 -18 -41 -7 -41
17 0 45 -47 54 -110 22 -45 -23 -67 -51 -76 -99 l-7 -33 40 25 c84 53 163 73
163 42 0 -8 -9 -20 -20 -27 -17 -11 -18 -14 -4 -29 14 -16 13 -19 -10 -34 -13
-9 -33 -16 -43 -15 -59 7 -78 -1 -124 -49 -54 -56 -81 -104 -115 -205 -21 -62
-22 -67 -5 -52 26 23 66 101 87 170 17 55 43 84 52 58 2 -7 13 -10 28 -6 15 4
24 2 24 -6 0 -6 21 7 48 30 26 23 79 58 119 78 50 25 75 44 82 62 5 14 17 46
26 72 18 48 40 67 58 49 7 -7 7 -22 0 -45 -13 -42 -9 -48 25 -35 57 22 127
-25 103 -70 -6 -11 -20 -26 -32 -34 -20 -14 -19 -15 23 -29 78 -26 54 -72 -26
-50 -22 6 -42 9 -44 7 -2 -2 6 -13 18 -25 32 -32 19 -54 -29 -47 -33 4 -40 2
-49 -18 -7 -16 -7 -26 0 -33 6 -6 8 -18 5 -26 -5 -13 -23 -16 -91 -16 -90 0
-163 -21 -214 -60 l-25 -20 31 0 c43 0 62 -9 62 -30 0 -24 -19 -30 -91 -30
-33 0 -72 -6 -87 -14 -25 -13 -100 -86 -131 -128 -13 -17 -11 -17 25 -4 83 30
162 70 242 122 94 61 182 107 291 150 59 23 82 39 118 81 70 81 141 116 131
65 -2 -10 3 -22 11 -28 13 -10 13 -14 1 -29 -8 -9 -23 -21 -35 -25 -18 -7 -15
-9 20 -24 48 -21 59 -35 39 -57 -13 -15 -13 -17 1 -22 8 -4 15 -17 15 -31 0
-13 7 -26 15 -30 24 -9 17 -35 -10 -42 -18 -4 -48 5 -101 30 -42 20 -87 36
-100 36 -27 0 -163 -51 -204 -76 -23 -14 -18 -15 78 -10 56 3 109 3 117 0 22
-9 18 -32 -6 -39 -19 -6 -17 -9 20 -26 29 -12 41 -24 41 -39 0 -29 -53 -27
-122 5 -78 37 -86 31 -29 -21 67 -60 80 -83 56 -100 -23 -17 -54 -2 -118 60
-26 25 -65 58 -87 72 -44 30 -56 28 -179 -29 l-66 -31 40 -7 c22 -4 56 -3 75
3 19 5 51 8 70 6 30 -2 35 -7 33 -25 -2 -13 3 -23 10 -23 6 0 23 -9 37 -20 41
-31 2 -53 -65 -36 l-30 8 23 -24 c12 -14 22 -32 22 -41 0 -44 -60 -25 -120 37
-20 21 -51 41 -75 47 -55 15 -142 15 -188 0 l-38 -13 21 -33 c17 -27 19 -38
10 -55 -6 -11 -9 -24 -6 -29 3 -4 97 -11 208 -14 114 -3 271 -15 358 -27 140
-19 171 -20 325 -10 94 6 211 17 260 25 50 8 113 17 140 20 53 7 128 36 139
54 4 5 -3 29 -15 52 -37 73 -12 146 63 185 36 19 42 18 77 -12 l31 -26 0 32
c0 88 92 157 160 120 16 -9 22 -6 34 17 16 32 60 75 93 92 32 16 64 14 100 -8
27 -17 32 -18 37 -5 10 25 7 34 -9 34 -8 0 -40 12 -70 27 -56 28 -56 28 -50
65 4 21 4 38 1 38 -4 0 -19 -14 -34 -31 l-28 -31 -17 25 c-13 20 -15 32 -7 52
11 29 13 75 4 75 -3 0 -17 -9 -31 -19 -31 -25 -126 -53 -148 -45 -10 4 -26 25
-36 48 l-19 41 0 -39 0 -39 -23 21 c-23 22 -43 30 -33 13 3 -5 -8 -11 -24 -14
-43 -9 -110 -80 -110 -116 0 -17 5 -33 11 -36 18 -12 59 5 98 40 l38 34 1 -44
c2 -49 -22 -85 -57 -85 -11 0 -25 -2 -33 -5 -18 -7 -48 16 -52 38 -1 9 -10 23
-21 30 -25 19 -15 52 31 105 l37 43 -46 67 c-24 37 -53 89 -63 115 -11 27 -34
66 -53 88 -65 77 -275 180 -460 225 -58 15 -292 27 -324 18z m1251 -739 c-20
-38 -41 -55 -70 -55 -15 0 -28 3 -29 8 0 4 -2 16 -4 27 -2 11 5 39 16 62 l21
43 38 -32 c33 -28 37 -36 28 -53z m-288 -115 c-6 -11 -8 -24 -6 -29 3 -5 -1
-11 -9 -15 -10 -3 -15 1 -15 13 0 30 11 51 26 51 12 0 12 -4 4 -20z m110 -55
c-7 -8 -22 -15 -34 -15 -18 0 -17 2 9 19 34 21 44 19 25 -4z"/>
<path d="M17344 2070 c-65 -28 -131 -121 -81 -112 10 2 25 -11 38 -30 l20 -33
-6 45 c-4 25 -7 47 -7 50 -1 39 24 41 41 3 l12 -27 21 32 c23 36 47 42 55 12
3 -11 11 -20 19 -20 21 0 28 -21 12 -36 -8 -8 -30 -23 -48 -33 -19 -10 -43
-30 -54 -44 -16 -22 -17 -29 -6 -42 7 -8 23 -15 36 -15 30 0 39 -17 24 -45
-10 -19 -10 -27 2 -44 15 -21 17 -18 51 62 20 46 39 102 43 125 6 39 4 45 -34
86 -22 24 -45 53 -51 65 -14 25 -32 26 -87 1z"/>
<path d="M16852 1977 c-28 -66 -27 -110 3 -167 l24 -45 1 133 c0 72 -1 132 -2
132 -2 0 -13 -24 -26 -53z"/>
<path d="M16760 1793 l0 -53 37 0 c34 0 35 1 21 18 -9 9 -25 33 -37 52 l-21
35 0 -52z"/>
<path d="M19056 1827 c-14 -10 -17 -21 -12 -40 8 -32 32 -46 94 -54 37 -4 52
-2 65 12 41 41 4 86 -76 92 -35 3 -58 0 -71 -10z"/>
<path d="M19384 1749 c-4 -6 -8 -32 -9 -58 -1 -25 0 -38 2 -28 4 15 9 14 39
-13 69 -60 136 -18 88 56 -29 43 -103 70 -120 43z"/>
<path d="M17335 1629 c-31 -59 -35 -75 -34 -135 1 -38 4 -80 8 -93 6 -21 9
-16 24 36 9 34 34 106 55 160 l38 98 -28 0 c-25 0 -33 -9 -63 -66z"/>
<path d="M17953 1593 c9 -2 25 -2 35 0 9 3 1 5 -18 5 -19 0 -27 -2 -17 -5z"/>
<path d="M16050 1545 c-8 -25 -9 -40 -1 -48 5 -7 19 -64 30 -126 11 -62 22
-116 25 -119 11 -10 6 111 -6 169 -10 50 -9 60 5 83 24 36 21 55 -9 66 -34 13
-31 15 -44 -25z"/>
<path d="M16197 1552 c-26 -13 -28 -17 -22 -50 13 -66 26 -165 33 -242 6 -66
9 -75 27 -75 24 0 23 17 -6 143 -21 92 -25 173 -8 203 15 30 7 36 -24 21z"/>
<path d="M16290 1549 c-9 -16 -7 -36 9 -89 12 -37 21 -93 21 -123 0 -30 3 -75
6 -101 5 -37 11 -46 26 -46 15 0 18 4 13 18 -4 9 -9 50 -11 89 -2 40 -8 100
-14 133 -9 50 -8 66 4 90 13 28 13 31 -4 40 -27 15 -38 12 -50 -11z"/>
<path d="M17835 1536 c-36 -16 -111 -91 -80 -80 11 4 44 23 73 42 37 25 56 32
63 25 8 -8 5 -17 -11 -33 -36 -36 -18 -31 24 7 29 27 35 37 25 44 -20 12 -59
10 -94 -5z"/>
<path d="M15777 1518 c-4 -13 -2 -40 3 -59 6 -19 10 -46 10 -62 0 -15 7 -38
15 -50 8 -12 25 -58 39 -102 30 -99 69 -195 79 -195 12 0 8 35 -7 72 -8 19
-22 88 -31 154 -23 161 -33 202 -56 209 -11 4 -19 10 -19 14 0 4 -6 15 -14 26
-12 17 -13 17 -19 -7z"/>
<path d="M15909 1514 c-10 -13 -10 -20 4 -44 9 -15 17 -37 17 -48 0 -32 68
-294 79 -305 17 -17 25 23 12 57 -20 53 -43 177 -46 255 -2 58 -7 78 -21 88
-23 17 -29 16 -45 -3z"/>
<path d="M16596 1515 c-4 -11 3 -19 21 -26 35 -13 42 -9 32 19 -10 25 -44 30
-53 7z"/>
<path d="M16430 1461 c0 -44 2 -49 20 -44 17 4 18 8 8 20 -9 11 -9 19 -1 32 9
14 7 20 -8 29 -18 11 -19 9 -19 -37z"/>
<path d="M16731 1476 c-9 -10 -6 -17 13 -30 14 -9 29 -16 35 -16 17 0 20 29 5
45 -19 19 -38 19 -53 1z"/>
<path d="M19522 1478 c-27 -27 -4 -99 44 -137 46 -37 94 -23 94 27 0 69 -100
148 -138 110z"/>
<path d="M16873 1432 c-6 -4 -13 -17 -17 -29 -5 -16 -2 -25 14 -33 12 -6 27
-9 34 -7 15 6 29 47 16 47 -5 0 -15 6 -23 14 -7 8 -18 11 -24 8z"/>
<path d="M16983 1355 c1 -22 7 -39 12 -38 16 4 17 37 1 58 -13 18 -14 17 -13
-20z"/>
<path d="M17120 1385 c0 -5 5 -17 10 -25 5 -8 10 -10 10 -5 0 6 -5 17 -10 25
-5 8 -10 11 -10 5z"/>
<path d="M15655 1370 c-10 -16 4 -28 26 -23 20 6 20 3 14 -49 -6 -46 -4 -56 9
-61 10 -4 24 -23 32 -43 8 -20 31 -59 50 -86 19 -28 34 -55 34 -61 0 -6 3 -8
6 -5 3 3 -6 28 -19 55 -14 27 -33 76 -42 108 -29 104 -47 144 -71 160 -27 18
-31 18 -39 5z"/>
<path d="M19295 1370 c-10 -16 24 -69 55 -85 52 -27 76 -14 59 32 -15 40 -98
79 -114 53z"/>
<path d="M16445 1287 c8 -91 10 -97 32 -97 13 0 15 9 9 53 -3 28 -6 66 -6 83
0 24 -5 33 -21 37 -21 6 -21 4 -14 -76z"/>
<path d="M16566 1289 c-9 -91 -8 -109 8 -109 15 0 21 21 32 113 6 52 5 57 -13
57 -17 0 -21 -9 -27 -61z"/>
<path d="M16710 1340 c0 -5 10 -10 23 -10 18 0 19 2 7 10 -19 13 -30 13 -30 0z"/>
<path d="M16834 1255 c-7 -17 4 -37 17 -30 12 8 12 45 -1 45 -6 0 -13 -7 -16
-15z"/>
<path d="M19065 1250 c-18 -28 64 -90 100 -76 22 8 18 24 -14 57 -30 29 -74
39 -86 19z"/>
<path d="M16955 1239 c-10 -15 3 -25 16 -12 7 7 7 13 1 17 -6 3 -14 1 -17 -5z"/>
<path d="M16708 1232 c-12 -2 -18 -13 -18 -33 0 -30 6 -34 28 -20 20 12 11 57
-10 53z"/>
<path d="M19530 1215 c-21 -26 22 -115 56 -115 23 0 35 36 23 67 -21 57 -55
77 -79 48z"/>
<path d="M16110 1190 c0 -11 4 -20 9 -20 5 0 7 9 4 20 -3 11 -7 20 -9 20 -2 0
-4 -9 -4 -20z"/>
<path d="M17034 1176 c-9 -24 12 -44 28 -28 10 10 8 16 -5 29 -15 15 -17 15
-23 -1z"/>
<path d="M18894 1140 c-31 -12 -64 -59 -64 -91 0 -24 4 -29 26 -29 36 0 84 50
84 88 0 33 -15 43 -46 32z"/>
</g>
</svg>
